# xmcd
#
# Track frame offsets:
#	150
#	25100
#	48083
#	66868
#	86805
#	104898
#	130895
#	149173
#	169605
#	189333
#
# Disc length: 2774 seconds
#
# Revision: 1
# Processed by: cddbd v1.5.2PL0 Copyright (c) Steve Scherf et al.
# Submitted via: EZCDAudioConverter 8.0.2.1
#
DISCID=8f0ad40a
DTITLE=Giao Linh - Đò Tình
DYEAR=1994
DGENRE=blues
TTITLE0=Còn thương rau đắng mọc sau hè
TTITLE1=Cuối đường kỷ niệm
TTITLE2=Viết thư tình
TTITLE3=Định mệnh buồn
TTITLE4=Xin làm chim rừng núi
TTITLE5=Màu tím hoa sim
TTITLE6=Thuyền không bến đỗ
TTITLE7=Người thương kẻ nhớ
TTITLE8=Đò Tình
TTITLE9=Buồn không anh
EXTD=
EXTT0=
EXTT1=
EXTT2=
EXTT3=
EXTT4=
EXTT5=
EXTT6=
EXTT7=
EXTT8=
EXTT9=
PLAYORDER=
